<?xml version="1.0" encoding="UTF-8"?>
<svg version="1.1" xmlns="http://www.w3.org/2000/svg" width="500" height="500">
<path d="M0 0 C2.97 0.495 2.97 0.495 6 1 C6 1.99 6 2.98 6 4 C4.35 3.67 2.7 3.34 1 3 C2.72855926 5.14567913 2.72855926 5.14567913 5 7 C7.21858253 6.86358623 7.21858253 6.86358623 9 6 C8.67 7.32 8.34 8.64 8 10 C8.99 10.33 9.98 10.66 11 11 C10.67 11.66 10.34 12.32 10 13 C9.195625 13.103125 8.39125 13.20625 7.5625 13.3125 C6.2940625 13.6528125 6.2940625 13.6528125 5 14 C3.62533375 16.47636012 3.62533375 16.47636012 3 19 C3.66 19.33 4.32 19.66 5 20 C5 20.66 5 21.32 5 22 C3.35 21.67 1.7 21.34 0 21 C-0.75 19.4375 -0.75 19.4375 -1 17 C0.13084437 14.49713591 1.52139516 12.32992278 3 10 C2.01 9.34 1.02 8.68 0 8 C-1.98 10.97 -3.96 13.94 -6 17 C-6.66 16.67 -7.32 16.34 -8 16 C-6.21965318 10.40462428 -6.21965318 10.40462428 -4.8125 7.8125 C-3.6797224 5.83312397 -3.6797224 5.83312397 -5 3 C-3.68 3 -2.36 3 -1 3 C-0.67 2.01 -0.34 1.02 0 0 Z " fill="#6D6D6D" transform="translate(288,122)"/>
<path d="M0 0 C2.375 1.8125 2.375 1.8125 4 5 C4.32801923 9.063206 4.17976677 12.91030593 4 17 C-1.94 16.67 -7.88 16.34 -14 16 C-14 5.24137931 -14 5.24137931 -11 1 C-7.19017752 -1.36826803 -4.23440838 -1.35140693 0 0 Z M-9.375 3.5 C-11.51770359 6.79646706 -11.2964258 9.14646454 -11 13 C-7.04 13.33 -3.08 13.66 1 14 C1.88494305 10.54067716 2.21495755 8.56900527 0.9375 5.1875 C-0.88720323 2.77592207 -0.88720323 2.77592207 -3.9375 1.9375 C-7.03643199 1.73693684 -7.03643199 1.73693684 -9.375 3.5 Z " fill="#626262" transform="translate(168,190)"/>
<path d="M0 0 C5.61 0 11.22 0 17 0 C17.60680356 11.0438247 17.60680356 11.0438247 14.9375 15.25 C11.22835396 17.45970402 9.25337364 17.68357791 5 17 C2.30078125 15.38671875 2.30078125 15.38671875 0 13 C-0.66739899 8.5791491 -0.22480001 4.4960002 0 0 Z M2 3 C1.79854653 6.49186021 1.65092195 9.19917389 3.0625 12.4375 C5.05031717 14.30506196 5.05031717 14.30506196 8.5 14.5625 C12.07514114 14.36053778 12.07514114 14.36053778 13.9375 11.875 C15.34665014 8.57284716 15.34665014 8.57284716 15 3 C10.71 3 6.42 3 2 3 Z " fill="#565656" transform="translate(321,196)"/>
<path d="M0 0 C0.66 0.33 1.32 0.66 2 1 C1.41321669 4.52069985 0.64350079 6.71299843 -1 10 C1.97 9.01 4.94 8.02 8 7 C9.39195915 11.17587745 7.82323219 13.13474776 6 17 C6.9075 16.484375 7.815 15.96875 8.75 15.4375 C12 14 12 14 14.375 14.3125 C14.91125 14.539375 15.4475 14.76625 16 15 C12.62830008 17.83222793 9.14111107 19.52103176 5 21 C3.68 20.67 2.36 20.34 1 20 C1.99 17.36 2.98 14.72 4 12 C1.36 12.99 -1.28 13.98 -4 15 C-4.92718689 11.91863039 -5.14268368 10.38328753 -4.00390625 7.32421875 C-3.52824219 6.45410156 -3.05257813 5.58398438 -2.5625 4.6875 C-2.08941406 3.80449219 -1.61632812 2.92148438 -1.12890625 2.01171875 C-0.75636719 1.34785156 -0.38382812 0.68398437 0 0 Z " fill="#5E5E5E" transform="translate(300,134)"/>
<path d="M0 0 C0.99 0 1.98 0 3 0 C4.60546875 1.96875 4.60546875 1.96875 6.1875 4.5 C6.71730469 5.3353125 7.24710938 6.170625 7.79296875 7.03125 C8.19128906 7.6809375 8.58960938 8.330625 9 9 C5.0299782 13.21814817 0.69159716 16.61227103 -4 20 C-8.14200729 18.18134554 -9.74801671 15.94097076 -12 12 C-12 11.01 -12 10.02 -12 9 C-9.00675737 10.0975223 -8.15389099 10.67682892 -6.75 13.625 C-6.5025 14.40875 -6.255 15.1925 -6 16 C-4.68 15.01 -3.36 14.02 -2 13 C-3.98 9.535 -3.98 9.535 -6 6 C-5.01 5.67 -4.02 5.34 -3 5 C-1.02 7.97 -1.02 7.97 1 11 C2.32 10.67 3.64 10.34 5 10 C4.6390625 9.44570312 4.278125 8.89140625 3.90625 8.3203125 C3.4421875 7.59585938 2.978125 6.87140625 2.5 6.125 C2.0359375 5.40570313 1.571875 4.68640625 1.09375 3.9453125 C0 2 0 2 0 0 Z " fill="#6B6B6B" transform="translate(180,242)"/>
<path d="M0 0 C0.99 0 1.98 0 3 0 C4.73868848 2.26502615 6.25168844 4.45974068 7.75 6.875 C8.17410156 7.52597656 8.59820312 8.17695313 9.03515625 8.84765625 C10.09494924 10.52192205 11.05584303 12.25790506 12 14 C11.67 14.66 11.34 15.32 11 16 C10.01 16 9.02 16 8 16 C7.67 16.99 7.34 17.98 7 19 C3.75 19.75 3.75 19.75 0 20 C-2.75501042 18.11499287 -3.74127852 16.6306336 -5 13.5625 C-5 11 -5 11 -3.25 8.1875 C-1 6 -1 6 2 6 C1.34 5.01 0.68 4.02 0 3 C0 2.01 0 1.02 0 0 Z M-2 11 C-1.62095792 14.29075996 -1.62095792 14.29075996 0 17 C1.66617115 17.04063832 3.33388095 17.042721 5 17 C5.66 15.35 6.32 13.7 7 12 C5.68799596 10.64567325 4.35368596 9.31266518 3 8 C1.03177114 8 -0.50528545 9.84280164 -2 11 Z " fill="#4F4F4F" transform="translate(288,259)"/>
<path d="M0 0 C1.34956003 4.0486801 1.33485934 7.78077237 1 12 C-0.5625 14.0625 -0.5625 14.0625 -3 15 C-6.5625 15 -6.5625 15 -10 14 C-12 11.6875 -12 11.6875 -13 9 C-12.6875 6.6875 -12.6875 6.6875 -12 5 C-14.31 5.33 -16.62 5.66 -19 6 C-18.67 5.01 -18.34 4.02 -18 3 C-15.234375 2.05078125 -15.234375 2.05078125 -11.75 1.3125 C-10.61046875 1.06113281 -9.4709375 0.80976563 -8.296875 0.55078125 C-5.44136793 0.07373564 -2.8833448 -0.11381624 0 0 Z M-10 6 C-9.67958603 8.60280568 -9.67958603 8.60280568 -9 11 C-6.65466049 11.76956136 -6.65466049 11.76956136 -4 12 C-2.01970318 10.93654948 -2.01970318 10.93654948 -1 9 C-1.25146579 6.86254078 -1.45925779 5.54074221 -3 4 C-6.961168 3.60909667 -6.961168 3.60909667 -10 6 Z " fill="#595959" transform="translate(173,215)"/>
<path d="M0 0 C1.52491998 3.04983996 1.23562548 5.6423369 1 9 C-0.25 10.9375 -0.25 10.9375 -2 12 C-3.32 12 -4.64 12 -6 12 C-5.01 13.485 -5.01 13.485 -4 15 C-4.375 17.1875 -4.375 17.1875 -5 19 C-7.9552728 16.38221206 -9.75832727 13.32416665 -11.75 9.9375 C-12.38421875 8.87402344 -13.0184375 7.81054688 -13.671875 6.71484375 C-14.11015625 5.81894531 -14.5484375 4.92304688 -15 4 C-14.67 3.34 -14.34 2.68 -14 2 C-13.01 2 -12.02 2 -11 2 C-11 1.34 -11 0.68 -11 0 C-6.6902148 -2.28165099 -4.41055026 -2.00479557 0 0 Z M-8.6875 2.5 C-9.120625 2.995 -9.55375 3.49 -10 4 C-9.29660434 6.50965614 -9.29660434 6.50965614 -8 9 C-6.12042756 10.1576585 -6.12042756 10.1576585 -4 10 C-2.08333333 8.91666667 -2.08333333 8.91666667 -1 7 C-1.27036147 4.02602384 -1.85446026 3.14553974 -4 1 C-7.00259517 0.66781808 -7.00259517 0.66781808 -8.6875 2.5 Z " fill="#6C6C6C" transform="translate(212,128)"/>
<path d="M0 0 C3.625 0.375 3.625 0.375 6.0625 2.375 C6.8359375 3.365 6.8359375 3.365 7.625 4.375 C5.625 5.375 5.625 5.375 2.625 4.4375 C1.635 4.086875 0.645 3.73625 -0.375 3.375 C-1.035 3.375 -1.695 3.375 -2.375 3.375 C-1.24016076 6.77951771 -0.82222063 6.9755564 2.1875 8.5625 C3.321875 9.160625 4.45625 9.75875 5.625 10.375 C5.75 13.25 5.75 13.25 5.625 16.375 C3.625 18.375 3.625 18.375 0.25 18.6875 C-3.45237797 18.36832949 -4.83801878 18.01346047 -7.375 15.375 C-7.375 14.715 -7.375 14.055 -7.375 13.375 C-4.075 13.705 -0.775 14.035 2.625 14.375 C-0.18127277 11.39340338 -0.18127277 11.39340338 -3.0625 9.5 C-5.375 7.375 -5.375 7.375 -5.8125 4.75 C-5.08954942 0.82541114 -3.88704017 0.43189335 0 0 Z " fill="#6F6F6F" transform="translate(260.375,112.625)"/>
<path d="M0 0 C2.0625 2.1875 2.0625 2.1875 3 5 C2.5625 8.1875 2.5625 8.1875 1 11 C-2.624827 12.77385151 -4.13560305 13.28813232 -8 12 C-7.43454163 8.04179141 -6.19097652 5.3340947 -4 2 C-6.99324263 3.0975223 -7.84610901 3.67682892 -9.25 6.625 C-9.4975 7.40875 -9.745 8.1925 -10 9 C-10.66 8.67 -11.32 8.34 -12 8 C-11.7095662 4.73261975 -11.51431765 2.6132249 -9.375 0.0625 C-5.8542329 -1.51258002 -3.65765818 -1.06404602 0 0 Z M-2 4 C-2.99 5.98 -3.98 7.96 -5 10 C-3.68 9.67 -2.36 9.34 -1 9 C-0.67 7.35 -0.34 5.7 0 4 C-0.66 4 -1.32 4 -2 4 Z " fill="#7F7F7F" transform="translate(320,240)"/>
<path d="M0 0 C-0.66 2.97 -1.32 5.94 -2 9 C-1.01 8.34 -0.02 7.68 1 7 C1.25030977 4.41619823 1.25030977 4.41619823 1 2 C1.99 2 2.98 2 4 2 C4.3125 5.25 4.3125 5.25 4 9 C1.875 11.5 1.875 11.5 -1 13 C-4.54334961 13 -6.25666783 12.64741834 -8.9375 10.3125 C-10.41325591 7.10056066 -10.06444212 5.33525198 -9 2 C-6.03346211 -1.28438123 -4.12096351 -1.25918329 0 0 Z M-5 2 C-5.66 2.66 -6.32 3.32 -7 4 C-6.67958603 6.60280568 -6.67958603 6.60280568 -6 9 C-3.64046906 6.64046906 -3.50858587 5.22104383 -3 2 C-3.66 2 -4.32 2 -5 2 Z " fill="#777777" transform="translate(171,176)"/>
<path d="M0 0 C2.54685809 0.0785782 3.81954973 0.17584047 6.0625 1.4375 C7.54151666 4.21065624 7.44851984 6.22434125 7.0625 9.3125 C5.20907225 11.87199546 4.12493607 12.29168798 1.0625 13.3125 C-0.2575 10.3425 -1.5775 7.3725 -2.9375 4.3125 C-3.13836443 8.02849191 -3.0894437 9.08458445 -0.9375 12.3125 C-2.2575 12.3125 -3.5775 12.3125 -4.9375 12.3125 C-6.67495313 9.65521875 -6.94581972 8.41649645 -6.6875 5.1875 C-5.51387057 0.68858718 -4.67374464 0.37093211 0 0 Z M0.0625 2.3125 C0.7225 4.6225 1.3825 6.9325 2.0625 9.3125 C2.7225 9.3125 3.3825 9.3125 4.0625 9.3125 C4.3925 8.3225 4.7225 7.3325 5.0625 6.3125 C3.82736718 4.08225869 3.82736718 4.08225869 2.0625 2.3125 C1.4025 2.3125 0.7425 2.3125 0.0625 2.3125 Z " fill="#686868" transform="translate(323.9375,174.6875)"/>
<path d="M0 0 C3.5625 0.3125 3.5625 0.3125 5.5 1.3125 C7.2236703 4.55705586 7.35687783 7.7415118 6.5625 11.3125 C4.375 13.375 4.375 13.375 1.5625 14.3125 C-1.8385144 14.07521993 -3.007034 13.742966 -5.4375 11.3125 C-5.0625 9.1875 -5.0625 9.1875 -4.4375 7.3125 C-2.1275 6.6525 0.1825 5.9925 2.5625 5.3125 C2.5625 4.6525 2.5625 3.9925 2.5625 3.3125 C-0.78123475 3.86978913 -3.47062999 4.66423889 -6.4375 6.3125 C-5.55427706 1.8963853 -4.77389749 0.43399068 0 0 Z M-2.4375 10.3125 C0.0375 10.8075 0.0375 10.8075 2.5625 11.3125 C3.2225 9.9925 3.8825 8.6725 4.5625 7.3125 C1.04533697 7.3125 0.19128252 8.13695585 -2.4375 10.3125 Z " fill="#797979" transform="translate(277.4375,271.6875)"/>
<path d="M0 0 C0.66 0.99 1.32 1.98 2 3 C0.35 5.31 -1.3 7.62 -3 10 C-1.68 9.67 -0.36 9.34 1 9 C1.33 7.68 1.66 6.36 2 5 C2.99 5 3.98 5 5 5 C4.8125 7.8125 4.8125 7.8125 4 11 C1.33492902 13.29492223 -0.09714716 14.04299299 -3.625 13.875 C-6.30591626 12.88729401 -7.46609879 12.42194927 -9 10 C-9.4375 6.5 -9.4375 6.5 -9 3 C-6.35975692 -0.0313902 -3.93579364 -0.6214411 0 0 Z M-5 3 C-5.66 3.66 -6.32 4.32 -7 5 C-6.6814823 7.10820797 -6.6814823 7.10820797 -6 9 C-4.68 7.35 -3.36 5.7 -2 4 C-2.99 3.67 -3.98 3.34 -5 3 Z " fill="#616161" transform="translate(182,151)"/>
<path d="M0 0 C2.4375 1.0625 2.4375 1.0625 5 3 C6.125 6.4375 6.125 6.4375 6 10 C3.11830698 13.13596005 -0.00581534 14.63056526 -4 16 C-8.6741573 9.71910112 -8.6741573 9.71910112 -8 5 C-7 4 -7 4 -4.625 3.75 C-2 4 -2 4 -0.1875 5.375 C1 7 1 7 1 9 C1.66 9 2.32 9 3 9 C1.88145414 5.27385847 1.88145414 5.27385847 -1 3 C-0.67 2.01 -0.34 1.02 0 0 Z M-5 6 C-4.67 7.65 -4.34 9.3 -4 11 C-3.01 11.33 -2.02 11.66 -1 12 C-0.7226499 8.81509993 -0.7226499 8.81509993 -3 6 C-3.66 6 -4.32 6 -5 6 Z " fill="#727272" transform="translate(315,152)"/>
<path d="M0 0 C3.1875 0.25 3.1875 0.25 5.5625 1.3125 C7.1875 3.25 7.1875 3.25 7.625 6.75 C7.1875 10.25 7.1875 10.25 6.0625 12.1875 C3.402473 13.69484863 1.18543795 13.44986253 -1.8125 13.25 C-1.1525 9.95 -0.4925 6.65 0.1875 3.25 C-0.8025 3.91 -1.7925 4.57 -2.8125 5.25 C-3.0627157 8.33365871 -3.0627157 8.33365871 -2.8125 11.25 C-3.8025 11.25 -4.7925 11.25 -5.8125 11.25 C-6.85684887 7.92707176 -7.0287055 6.68241099 -5.4375 3.5 C-3.10933377 0.27638522 -3.10933377 0.27638522 0 0 Z M2.1875 3.25 C1.8575 5.89 1.5275 8.53 1.1875 11.25 C2.1775 10.92 3.1675 10.59 4.1875 10.25 C4.5175 8.6 4.8475 6.95 5.1875 5.25 C4.1975 4.59 3.2075 3.93 2.1875 3.25 Z " fill="#656565" transform="translate(324.8125,213.75)"/>
<path d="M0 0 C2.375 1.625 2.375 1.625 4 4 C4.60975382 7.65852292 4.44543026 9.30512879 2.4375 12.4375 C0 14 0 14 -3.5625 13.9375 C-8.47761194 12.59701493 -8.47761194 12.59701493 -10 10 C-10.54068562 6.36968224 -10.46379841 4.67785921 -8.375 1.625 C-5.28813568 -0.48706506 -3.6717087 -0.61195145 0 0 Z M-7 5 C-6.67958603 7.60280568 -6.67958603 7.60280568 -6 10 C-3.60280568 10.67958603 -3.60280568 10.67958603 -1 11 C1.26839983 9.16734675 1.26839983 9.16734675 1.1875 6.4375 C1.27003323 4.05310277 1.27003323 4.05310277 0 3 C-3.961168 2.60909667 -3.961168 2.60909667 -7 5 Z " fill="#7B7B7B" transform="translate(277,121)"/>
<path d="M0 0 C2.73625437 1.47336774 3.38708421 2.44772966 4.4375 5.3125 C-1.1875 8.3125 -1.1875 8.3125 -4.5625 8.3125 C-4.5625 8.9725 -4.5625 9.6325 -4.5625 10.3125 C-1.43959365 9.82671457 1.43330359 9.3138988 4.4375 8.3125 C4.0625 10.25 4.0625 10.25 3.4375 12.3125 C0.3542365 13.85413175 -2.17128099 13.60997535 -5.5625 13.3125 C-8.22516871 11.07929398 -8.51597082 9.6924883 -8.9375 6.25 C-8.5625 3.3125 -8.5625 3.3125 -7.25 1.5 C-4.61958164 -0.35103514 -3.12701907 -0.83895633 0 0 Z M-5.25 3.8125 C-5.683125 4.3075 -6.11625 4.8025 -6.5625 5.3125 C-3.67063214 6.64554698 -3.67063214 6.64554698 -1.375 5.375 C-0.776875 5.024375 -0.17875 4.67375 0.4375 4.3125 C0.1075 3.6525 -0.2225 2.9925 -0.5625 2.3125 C-3.56509517 1.98031808 -3.56509517 1.98031808 -5.25 3.8125 Z " fill="#7B7B7B" transform="translate(221.5625,120.6875)"/>
<path d="M0 0 C0.99 0 1.98 0 3 0 C2.67 5.94 2.34 11.88 2 18 C-7 18 -7 18 -11 17 C-11 16.34 -11 15.68 -11 15 C-7.7 15 -4.4 15 -1 15 C-1 13.35 -1 11.7 -1 10 C-3.64 9.67 -6.28 9.34 -9 9 C-9 8.34 -9 7.68 -9 7 C-6.03 7 -3.06 7 0 7 C0 4.69 0 2.38 0 0 Z " fill="#6A6A6A" transform="translate(243,278)"/>
<path d="M0 0 C2.875 1.0625 2.875 1.0625 4.8125 3.3125 C6.04854048 6.51166359 6.05224372 7.86712419 4.875 11.0625 C3.75 12.875 3.75 12.875 1.875 14.0625 C-1.5343712 14.42778977 -4.00523824 14.6765629 -7.0625 13 C-8.78489792 9.85915674 -8.61648241 7.56431214 -8.125 4.0625 C-5.46834042 0.93701814 -4.11787106 0.08235742 0 0 Z M-3.125 3.0625 C-4.61 5.5375 -4.61 5.5375 -6.125 8.0625 C-5.135 9.3825 -4.145 10.7025 -3.125 12.0625 C-0.25775314 11.48905063 0.7364515 11.2010485 2.875 9.0625 C2.55458603 6.45969432 2.55458603 6.45969432 1.875 4.0625 C0.225 3.7325 -1.425 3.4025 -3.125 3.0625 Z " fill="#757575" transform="translate(218.125,271.9375)"/>
<path d="M0 0 C3 0.5625 3 0.5625 5.4375 2.6875 C7 5.5625 7 5.5625 7 8.6875 C6 11.5625 6 11.5625 4.3125 13.5 C1.12702876 14.96359489 -0.67881323 14.55178968 -4 13.5625 C-5.875 12.375 -5.875 12.375 -7 10.5625 C-7.54068562 6.93218224 -7.46379841 5.24035921 -5.375 2.1875 C-3 0.5625 -3 0.5625 0 0 Z M-1 2.5625 C-2.32 3.8825 -3.64 5.2025 -5 6.5625 C-4.01 8.2125 -3.02 9.8625 -2 11.5625 C-0.35 11.2325 1.3 10.9025 3 10.5625 C3.33 8.9125 3.66 7.2625 4 5.5625 C2.35 4.5725 0.7 3.5825 -1 2.5625 Z " fill="#6F6F6F" transform="translate(303,254.4375)"/>
<path d="M0 0 C0 0.66 0 1.32 0 2 C-3.96 3.98 -3.96 3.98 -8 6 C-7.67 7.32 -7.34 8.64 -7 10 C-3.62294375 9.46274105 -0.303314 8.88935377 3 8 C3.33 8.99 3.66 9.98 4 11 C2.21046815 11.83790789 0.41830305 12.67019396 -1.375 13.5 C-2.37273437 13.9640625 -3.37046875 14.428125 -4.3984375 14.90625 C-7 16 -7 16 -9 16 C-10.80607505 12.38784991 -11.94970648 9.85498984 -12.1875 5.8125 C-10.60160527 2.05643353 -8.59656289 1.25484048 -5.0078125 -0.43359375 C-3 -1 -3 -1 0 0 Z " fill="#6C6C6C" transform="translate(177,230)"/>
<path d="M0 0 C0.99 0 1.98 0 3 0 C2.38722388 2.96175123 1.74627478 4.38058783 0 7 C0 8.32 0 9.64 0 11 C1.32 11.33 2.64 11.66 4 12 C5.65 9.69 7.3 7.38 9 5 C9.99 5.33 10.98 5.66 12 6 C10.02 9.63 8.04 13.26 6 17 C5.01 17 4.02 17 3 17 C3 16.34 3 15.68 3 15 C2.21625 14.87625 1.4325 14.7525 0.625 14.625 C-2 14 -2 14 -4 12 C-3.73329709 7.28824867 -2.94857053 3.74241644 0 0 Z " fill="#696969" transform="translate(200,264)"/>
<path d="M0 0 C1.9375 1.0625 1.9375 1.0625 3 3 C3.6414791 8.98713826 3.6414791 8.98713826 1.8125 11.875 C-0.52105067 13.32341076 -2.25767499 13.79934207 -5 14 C-7.62811646 13.17402054 -8.69760622 12.41759141 -10.3125 10.1875 C-11.19970932 7.36456125 -10.93152267 5.794568 -10 3 C-7.55169116 -0.94449758 -4.2948925 -0.46016705 0 0 Z M-6.75 3.25 C-8.2330753 4.92391615 -8.2330753 4.92391615 -7.8125 7.0625 C-7.06529664 9.18712526 -7.06529664 9.18712526 -5 11 C-2.39719432 10.67958603 -2.39719432 10.67958603 0 10 C0.78282648 8.20800528 0.78282648 8.20800528 1 6 C-0.14697958 3.69276643 -0.14697958 3.69276643 -2 2 C-4.95156348 1.7093809 -4.95156348 1.7093809 -6.75 3.25 Z " fill="#696969" transform="translate(197,136)"/>
<path d="M0 0 C1.32 0.33 2.64 0.66 4 1 C4.75 3.1875 4.75 3.1875 5 6 C3.125 8.5625 3.125 8.5625 1 11 C0.22166466 13.18214568 0.22166466 13.18214568 0 15 C-1.65 15.33 -3.3 15.66 -5 16 C-6.25664978 13.09399739 -7 11.20395416 -7 8 C-4.525 8.99 -4.525 8.99 -2 10 C-0.23537317 6.91190305 0 5.76687864 0 2 C0 1.34 0 0.68 0 0 Z " fill="#6C6C6C" transform="translate(193,258)"/>
<path d="M0 0 C0 0.99 0 1.98 0 3 C-3.3 3.33 -6.6 3.66 -10 4 C-9.01 4.928125 -8.02 5.85625 -7 6.8125 C-5.3125 8.39453125 -5.3125 8.39453125 -4 10 C-4 10.99 -4 11.98 -4 13 C-7.21524305 11.59155282 -9.32183868 9.89655214 -11.75 7.375 C-12.36359375 6.74335938 -12.9771875 6.11171875 -13.609375 5.4609375 C-14.29773438 4.73777344 -14.29773438 4.73777344 -15 4 C-14.67 3.01 -14.34 2.02 -14 1 C-12.04175306 0.83232136 -10.08339945 0.66588795 -8.125 0.5 C-6.48917969 0.36078125 -6.48917969 0.36078125 -4.8203125 0.21875 C-3.21670436 0.09437042 -1.60842449 0 0 0 Z " fill="#787878" transform="translate(330,229)"/>
<path d="M0 0 C3.11824121 1.36253583 5.04737351 2.85108253 7.25 5.4375 C7.77078125 6.03433594 8.2915625 6.63117188 8.828125 7.24609375 C10 9 10 9 10 12 C5.05 12 0.1 12 -5 12 C-5 11.34 -5 10.68 -5 10 C-1.7 9.67 1.6 9.34 5 9 C4.175 8.071875 3.35 7.14375 2.5 6.1875 C0 3.375 0 3.375 0 0 Z " fill="#404040" transform="translate(169,161)"/>
<path d="M0 0 C0.66 0.33 1.32 0.66 2 1 C1.44271087 4.34373475 0.64826111 7.03312999 -1 10 C0.1446875 9.505 0.1446875 9.505 1.3125 9 C4 8 4 8 7 8 C7 8.66 7 9.32 7 10 C6.01 10 5.02 10 4 10 C4 10.66 4 11.32 4 12 C1.36 12.99 -1.28 13.98 -4 15 C-4.92718689 11.91863039 -5.14268368 10.38328753 -4.00390625 7.32421875 C-3.52824219 6.45410156 -3.05257813 5.58398438 -2.5625 4.6875 C-2.08941406 3.80449219 -1.61632812 2.92148438 -1.12890625 2.01171875 C-0.75636719 1.34785156 -0.38382812 0.68398437 0 0 Z " fill="#636363" transform="translate(300,134)"/>
<path d="M0 0 C0.99 0.33 1.98 0.66 3 1 C3.36426713 7.43538595 3.36426713 7.43538595 1.75 9.9375 C0 11 0 11 -4 11 C-3.01 12.485 -3.01 12.485 -2 14 C-2.375 16.1875 -2.375 16.1875 -3 18 C-5.0245738 16.06745228 -6.42105792 14.36841312 -8 12 C-7.625 9.8125 -7.625 9.8125 -7 8 C-4.69 8 -2.38 8 0 8 C0 5.36 0 2.72 0 0 Z " fill="#3F3F3F" transform="translate(210,129)"/>
<path d="M0 0 C3.44835686 1.55135868 6.22991749 3.59152983 9.1875 5.9375 C10.50814453 6.97197266 10.50814453 6.97197266 11.85546875 8.02734375 C14 10 14 10 15 13 C10.81641523 12.44151174 7.97370431 9.95553698 4.75 7.4375 C4.19570313 7.01275391 3.64140625 6.58800781 3.0703125 6.15039062 C1.70910589 5.10601659 0.35394167 4.05377536 -1 3 C-0.67 2.01 -0.34 1.02 0 0 Z " fill="#6E6E6E" transform="translate(305,249)"/>
<path d="M0 0 C3.89917968 1.61537444 6.71293772 4.27924873 9.75 7.125 C10.25660156 7.59292969 10.76320312 8.06085938 11.28515625 8.54296875 C12.52719141 9.69126541 13.76411494 10.84508672 15 12 C14.67 12.66 14.34 13.32 14 14 C10.35939652 12.42637466 7.70159995 10.19045961 4.75 7.5625 C3.85796875 6.78003906 2.9659375 5.99757812 2.046875 5.19140625 C0 3 0 3 0 0 Z " fill="#797979" transform="translate(177,141)"/>
<path d="M0 0 C0.99 0 1.98 0 3 0 C3.99 4.29 4.98 8.58 6 13 C3.69 13.66 1.38 14.32 -1 15 C-1.33 14.01 -1.66 13.02 -2 12 C-1.01 12 -0.02 12 1 12 C0.67 8.04 0.34 4.08 0 0 Z " fill="#686868" transform="translate(265,275)"/>
<path d="M0 0 C1.1875 3.0625 1.1875 3.0625 2 6 C1.41992188 5.90460938 0.83984375 5.80921875 0.2421875 5.7109375 C-4.76088419 5.00093063 -8.24022962 4.92522829 -13 7 C-12.7734375 5.14453125 -12.7734375 5.14453125 -12 3 C-10.0390625 1.69921875 -10.0390625 1.69921875 -7.625 0.6875 C-6.83351563 0.34074219 -6.04203125 -0.00601563 -5.2265625 -0.36328125 C-3 -1 -3 -1 0 0 Z " fill="#5B5B5B" transform="translate(326,166)"/>
<path d="M0 0 C3.33557632 2.9905167 5.15083921 5.93184627 7 10 C6.360625 10.103125 5.72125 10.20625 5.0625 10.3125 C4.381875 10.539375 3.70125 10.76625 3 11 C2.67 11.99 2.34 12.98 2 14 C-0.31 14.33 -2.62 14.66 -5 15 C-4.67 14.01 -4.34 13.02 -4 12 C-1.9375 11.3125 -1.9375 11.3125 0 11 C1.37432457 7.18243176 0.67975039 3.92744671 0 0 Z " fill="#6A6A6A" transform="translate(293,264)"/>
<path d="M0 0 C2.31 0.33 4.62 0.66 7 1 C7 1.99 7 2.98 7 4 C6.21625 4.061875 5.4325 4.12375 4.625 4.1875 C3.75875 4.455625 2.8925 4.72375 2 5 C0.62533375 7.47636012 0.62533375 7.47636012 0 10 C0.66 10.33 1.32 10.66 2 11 C2 11.66 2 12.32 2 13 C0.35 12.67 -1.3 12.34 -3 12 C-3.75 10.4375 -3.75 10.4375 -4 8 C-2.85781777 5.52076085 -1.44796099 3.32551311 0 1 C0 0.67 0 0.34 0 0 Z " fill="#808080" transform="translate(291,131)"/>
<path d="M0 0 C0 0.99 0 1.98 0 3 C-0.99 3.495 -0.99 3.495 -2 4 C-2 7.3 -2 10.6 -2 14 C-2.99 14 -3.98 14 -5 14 C-5.33872513 12.58461283 -5.67074624 11.16762037 -6 9.75 C-6.185625 8.96109375 -6.37125 8.1721875 -6.5625 7.359375 C-7 5 -7 5 -7 1 C-4.50935112 0.31292445 -2.62113708 0 0 0 Z " fill="#545454" transform="translate(234,117)"/>
<path d="M0 0 C0.66 0 1.32 0 2 0 C1.85769192 1.41702513 1.71099254 2.8336096 1.5625 4.25 C1.48128906 5.03890625 1.40007812 5.8278125 1.31640625 6.640625 C1.02365007 8.82364639 0.57935581 10.8773182 0 13 C-2.64 12.67 -5.28 12.34 -8 12 C-6 9 -6 9 -3 8 C-1.98245132 6.1346755 -1.98245132 6.1346755 -1.3125 3.9375 C-1.06113281 3.20402344 -0.80976563 2.47054688 -0.55078125 1.71484375 C-0.36902344 1.14894531 -0.18726563 0.58304687 0 0 Z " fill="#5E5E5E" transform="translate(230,277)"/>
<path d="M0 0 C0.48676056 7.42309859 0.48676056 7.42309859 -1.6875 10 C-4.3119388 11.13489245 -6.16910178 11.23590819 -9 11 C-8.67 10.01 -8.34 9.02 -8 8 C-6.35 7.67 -4.7 7.34 -3 7 C-3 5.35 -3 3.7 -3 2 C-4.98 1.34 -6.96 0.68 -9 0 C-9 -0.33 -9 -0.66 -9 -1 C-5.22102349 -2.0497157 -3.35080929 -2.10976881 0 0 Z " fill="#696969" transform="translate(174,219)"/>
<path d="M0 0 C0.66 0.99 1.32 1.98 2 3 C0.35 5.31 -1.3 7.62 -3 10 C-3.66 9.67 -4.32 9.34 -5 9 C-4.34 7.35 -3.68 5.7 -3 4 C-4.98 4.33 -6.96 4.66 -9 5 C-6.90156317 0.35346131 -5.14585927 -0.51458593 0 0 Z " fill="#7F7F7F" transform="translate(182,151)"/>
<path d="M0 0 C1.9375 1.25 1.9375 1.25 3 3 C2.6875 5.6875 2.6875 5.6875 2 8 C1.29875 7.175 0.5975 6.35 -0.125 5.5 C-2.78627227 2.69576604 -2.78627227 2.69576604 -6.3125 2.6875 C-7.199375 2.790625 -8.08625 2.89375 -9 3 C-9.33 3.66 -9.66 4.32 -10 5 C-10.66 4.67 -11.32 4.34 -12 4 C-11 1 -11 1 -8.8125 -0.25 C-5.43022744 -1.15193935 -3.35742566 -0.94883769 0 0 Z " fill="#6B6B6B" transform="translate(168,190)"/>
<path d="M0 0 C2.99324263 1.0975223 3.84610901 1.67682892 5.25 4.625 C5.4975 5.40875 5.745 6.1925 6 7 C6.61875 6.79375 7.2375 6.5875 7.875 6.375 C8.57625 6.25125 9.2775 6.1275 10 6 C10.66 6.66 11.32 7.32 12 8 C10.68 8.99 9.36 9.98 8 11 C3.78926767 9.49616703 2.16762883 6.79335044 0 3 C0 2.01 0 1.02 0 0 Z " fill="#757575" transform="translate(168,251)"/>
<path d="M0 0 C0.99 0 1.98 0 3 0 C3.3125 3.25 3.3125 3.25 3 7 C0.75 9.4375 0.75 9.4375 -2 11 C-3.32 11 -4.64 11 -6 11 C-6.33 10.01 -6.66 9.02 -7 8 C-6.34 8 -5.68 8 -5 8 C-4.67 7.01 -4.34 6.02 -4 5 C-4 5.99 -4 6.98 -4 8 C-1.9004467 6.84315671 -1.9004467 6.84315671 0 5 C0.33425735 2.37374861 0.33425735 2.37374861 0 0 Z " fill="#616161" transform="translate(172,178)"/>
<path d="M0 0 C0.33 0.99 0.66 1.98 1 3 C1.66 3 2.32 3 3 3 C3 3.99 3 4.98 3 6 C6.12290635 5.51421457 8.99580359 5.0013988 12 4 C11.625 5.9375 11.625 5.9375 11 8 C7.98675805 9.50662097 5.31713623 9.17770373 2 9 C0 7 0 7 -0.125 3.375 C-0.08375 2.26125 -0.0425 1.1475 0 0 Z " fill="#5E5E5E" transform="translate(214,125)"/>
<path d="M0 0 C0.66 0 1.32 0 2 0 C1.125 4.875 1.125 4.875 0 6 C-6.17397882 6.46596067 -6.17397882 6.46596067 -9.4375 4.625 C-11 3 -11 3 -11 1 C-7.7 1.33 -4.4 1.66 -1 2 C-0.67 1.34 -0.34 0.68 0 0 Z " fill="#494949" transform="translate(264,125)"/>
<path d="M0 0 C0.66 0.33 1.32 0.66 2 1 C2.625 3.0625 2.625 3.0625 3 5 C2.34 4.67 1.68 4.34 1 4 C0.79913557 7.71599191 0.8480563 8.77208445 3 12 C1.68 12 0.36 12 -1 12 C-2.73745313 9.34271875 -3.00831972 8.10399645 -2.75 4.875 C-2 2 -2 2 0 0 Z " fill="#787878" transform="translate(320,175)"/>
<path d="M0 0 C0.99 0.66 1.98 1.32 3 2 C2.64987213 4.59094622 2.26229035 6.5774211 0.875 8.8125 C-2.00868162 10.63883169 -4.67745793 10.18806842 -8 10 C-8 9.34 -8 8.68 -8 8 C-7.05125 7.79375 -6.1025 7.5875 -5.125 7.375 C-1.70833333 6.29166667 -1.70833333 6.29166667 -0.625 2.875 C-0.41875 1.92625 -0.2125 0.9775 0 0 Z " fill="#5F5F5F" transform="translate(221,276)"/>
<path d="M0 0 C1.4540625 0.0309375 1.4540625 0.0309375 2.9375 0.0625 C0.3125 3.9375 0.3125 3.9375 -3.0625 5.0625 C-3.0625 7.0425 -3.0625 9.0225 -3.0625 11.0625 C-4.0525 11.0625 -5.0425 11.0625 -6.0625 11.0625 C-7.10684887 7.73957176 -7.2787055 6.49491099 -5.6875 3.3125 C-3.34443326 0.06825374 -3.34443326 0.06825374 0 0 Z " fill="#8F8F8F" transform="translate(325.0625,213.9375)"/>
<path d="M0 0 C6.34507042 -0.35915493 6.34507042 -0.35915493 8.9375 1.0625 C10.55479605 4.01168691 10.18630138 6.70867559 10 10 C9.34 10 8.68 10 8 10 C7.4121875 8.2984375 7.4121875 8.2984375 6.8125 6.5625 C5.41389118 2.79660949 5.41389118 2.79660949 2.3125 2.0625 C1.1678125 2.0315625 1.1678125 2.0315625 0 2 C0 1.34 0 0.68 0 0 Z " fill="#545454" transform="translate(190,136)"/>
<path d="M0 0 C1.670625 0.061875 1.670625 0.061875 3.375 0.125 C3.705 0.785 4.035 1.445 4.375 2.125 C3.385 3.61 3.385 3.61 2.375 5.125 C2.375 4.465 2.375 3.805 2.375 3.125 C-0.96873475 3.68228913 -3.65812999 4.47673889 -6.625 6.125 C-5.71577947 1.57889733 -4.95184304 0.17075321 0 0 Z " fill="#808080" transform="translate(277.625,271.875)"/>
<path d="M0 0 C2.75 -0.3125 2.75 -0.3125 6 0 C8.375 2.25 8.375 2.25 10 5 C10 6.32 10 7.64 10 9 C9.34 9 8.68 9 8 9 C8 7.68 8 6.36 8 5 C5.34771188 3.92474806 2.71631546 2.90543849 0 2 C0 1.34 0 0.68 0 0 Z " fill="#616161" transform="translate(300,255)"/>
<path d="M0 0 C0.99 0.33 1.98 0.66 3 1 C0.525 5.455 0.525 5.455 -2 10 C-2.33 9.34 -2.66 8.68 -3 8 C-3.66 7.67 -4.32 7.34 -5 7 C-3.35 4.69 -1.7 2.38 0 0 Z " fill="#777777" transform="translate(209,269)"/>
<path d="M0 0 C0 0.99 0 1.98 0 3 C-4.62 3 -9.24 3 -14 3 C-14 2.34 -14 1.68 -14 1 C-12.04175306 0.83232136 -10.08339945 0.66588795 -8.125 0.5 C-6.48917969 0.36078125 -6.48917969 0.36078125 -4.8203125 0.21875 C-3.21670436 0.09437042 -1.60842449 0 0 0 Z " fill="#454545" transform="translate(330,229)"/>
<path d="M0 0 C3.7952131 1.49097658 5.61042731 3.75700849 8 7 C7.01 8.485 7.01 8.485 6 10 C4.99106869 8.90398831 3.99311775 7.79786082 3 6.6875 C2.1646875 5.76517578 2.1646875 5.76517578 1.3125 4.82421875 C0 3 0 3 0 0 Z " fill="#797979" transform="translate(169,161)"/>
<path d="M0 0 C0.99 0.33 1.98 0.66 3 1 C2.54917531 2.46067199 2.08906463 3.91848032 1.625 5.375 C1.36976563 6.18710938 1.11453125 6.99921875 0.8515625 7.8359375 C0 10 0 10 -2 12 C-2.84454356 8.62182575 -3.10844919 6.32534757 -2 3 C-1.01 3 -0.02 3 1 3 C0.67 2.01 0.34 1.02 0 0 Z " fill="#7C7C7C" transform="translate(306,141)"/>
<path d="M0 0 C-0.33 0.66 -0.66 1.32 -1 2 C-3.66666667 2 -6.33333333 2 -9 2 C-9.33 2.66 -9.66 3.32 -10 4 C-10.33 2.68 -10.66 1.36 -11 0 C-6.66370819 -2.2956839 -4.46535773 -1.86921951 0 0 Z " fill="#7A7A7A" transform="translate(212,128)"/>
<path d="M0 0 C0.28875 0.598125 0.5775 1.19625 0.875 1.8125 C2.58141905 5.13053703 3.85730492 6.90486994 7 9 C4.1875 9.3125 4.1875 9.3125 1 9 C-1.31141604 6.14925356 -2 4.6860549 -2 1 C-1.34 0.67 -0.68 0.34 0 0 Z " fill="#525252" transform="translate(285,269)"/>
<path d="M0 0 C3.125 0.375 3.125 0.375 6 1 C5.67 1.66 5.34 2.32 5 3 C4.360625 3.103125 3.72125 3.20625 3.0625 3.3125 C2.381875 3.539375 1.70125 3.76625 1 4 C-0.29660434 6.49034386 -0.29660434 6.49034386 -1 9 C-1.66 8.67 -2.32 8.34 -3 8 C-2.25 2.25 -2.25 2.25 0 0 Z " fill="#858585" transform="translate(311,240)"/>
<path d="M0 0 C0 0.66 0 1.32 0 2 C-8.42857143 4.28571429 -8.42857143 4.28571429 -13 4 C-13 3.34 -13 2.68 -13 2 C-4.57142857 -0.28571429 -4.57142857 -0.28571429 0 0 Z " fill="#4E4E4E" transform="translate(173,215)"/>
<path d="M0 0 C0.99 0 1.98 0 3 0 C2.21681311 3.91593446 0.60820142 7.36406635 -1 11 C-2.125 9.3125 -2.125 9.3125 -3 7 C-2.22283171 4.48914859 -1.17153984 2.34307967 0 0 Z " fill="#787878" transform="translate(200,264)"/>
<path d="M0 0 C2.64 0 5.28 0 8 0 C6.68 0.33 5.36 0.66 4 1 C4.66 1.99 5.32 2.98 6 4 C5.625 6.1875 5.625 6.1875 5 8 C2.27573689 5.64722731 1.1858237 3.37503669 0 0 Z " fill="#797979" transform="translate(202,139)"/>
<path d="M0 0 C0.66 0.33 1.32 0.66 2 1 C1.44271087 4.34373475 0.64826111 7.03312999 -1 10 C-1.99 10 -2.98 10 -4 10 C-2.8905928 6.51329166 -1.73662334 3.22515763 0 0 Z " fill="#757575" transform="translate(300,134)"/>
<path d="M0 0 C5.625 -0.25 5.625 -0.25 9 2 C9.1875 5.625 9.1875 5.625 9 9 C8.71125 8.38125 8.4225 7.7625 8.125 7.125 C7.06279958 4.86674235 7.06279958 4.86674235 5 3 C2.42938689 2.35232207 2.42938689 2.35232207 0 2 C0 1.34 0 0.68 0 0 Z " fill="#535353" transform="translate(271,121)"/>
<path d="M0 0 C0.8971875 0.5259375 0.8971875 0.5259375 1.8125 1.0625 C0.141875 1.371875 0.141875 1.371875 -1.5625 1.6875 C-5.45349195 2.67878301 -5.45349195 2.67878301 -6.625 6.1875 C-6.810625 7.13625 -6.99625 8.085 -7.1875 9.0625 C-7.5175 9.0625 -7.8475 9.0625 -8.1875 9.0625 C-8.55377907 3.56831395 -8.55377907 3.56831395 -6.875 1.25 C-4.33099783 -0.54022375 -2.93305311 -1.25702276 0 0 Z " fill="#6F6F6F" transform="translate(221.1875,120.9375)"/>
<path d="M0 0 C0.99 0.33 1.98 0.66 3 1 C4.1875 4.0625 4.1875 4.0625 5 7 C2.07120629 6.37240135 -0.36095629 5.41377341 -3 4 C-2.01 3.67 -1.02 3.34 0 3 C-0.66 2.34 -1.32 1.68 -2 1 C-1.34 0.67 -0.68 0.34 0 0 Z " fill="#939393" transform="translate(323,165)"/>
<path d="M0 0 C1 3 1 3 1 5 C1.66 5.33 2.32 5.66 3 6 C3 6.66 3 7.32 3 8 C1.35 7.67 -0.3 7.34 -2 7 C-2.6875 5.1875 -2.6875 5.1875 -3 3 C-1.5625 1.25 -1.5625 1.25 0 0 Z " fill="#666666" transform="translate(290,136)"/>
<path d="M0 0 C3.96 1.98 3.96 1.98 8 4 C8 4.66 8 5.32 8 6 C7.01 6.33 6.02 6.66 5 7 C2.3125 5.25 2.3125 5.25 0 3 C0 2.01 0 1.02 0 0 Z " fill="#828282" transform="translate(258,119)"/>
<path d="M0 0 C3.3 0.33 6.6 0.66 10 1 C8.515 2.485 8.515 2.485 7 4 C6.01 3.67 5.02 3.34 4 3 C2.33378384 2.96125079 0.66605828 2.9549714 -1 3 C-0.67 2.01 -0.34 1.02 0 0 Z " fill="#6F6F6F" transform="translate(155,218)"/>
<path d="M0 0 C0.66 0 1.32 0 2 0 C2 0.99 2 1.98 2 3 C3.65 3 5.3 3 7 3 C7 3.66 7 4.32 7 5 C3.71303767 5.79953138 2.28976808 6.09658936 -1 5 C-0.67 3.35 -0.34 1.7 0 0 Z " fill="#626262" transform="translate(313,247)"/>
<path d="M0 0 C0.99 0.33 1.98 0.66 3 1 C2.4375 2.9375 2.4375 2.9375 1 5 C-2.625 5.75 -2.625 5.75 -6 6 C-5.67 5.01 -5.34 4.02 -5 3 C-3.35 2.67 -1.7 2.34 0 2 C0 1.34 0 0.68 0 0 Z " fill="#929292" transform="translate(171,224)"/>
<path d="M0 0 C0.99 0.33 1.98 0.66 3 1 C3 3.64 3 6.28 3 9 C2.34 9 1.68 9 1 9 C1 7.35 1 5.7 1 4 C0.34 3.67 -0.32 3.34 -1 3 C-0.67 2.01 -0.34 1.02 0 0 Z " fill="#444444" transform="translate(281,274)"/>
<path d="M0 0 C0.99 0 1.98 0 3 0 C4.0625 2.375 4.0625 2.375 5 5 C4.67 5.66 4.34 6.32 4 7 C2.35 7 0.7 7 -1 7 C-0.01 6.67 0.98 6.34 2 6 C1.34 5.01 0.68 4.02 0 3 C0 2.01 0 1.02 0 0 Z " fill="#949494" transform="translate(288,259)"/>
<path d="M0 0 C1.65 0 3.3 0 5 0 C4.34 3.3 3.68 6.6 3 10 C2.34 9.67 1.68 9.34 1 9 C1.875 3.25 1.875 3.25 3 1 C2.01 0.67 1.02 0.34 0 0 Z " fill="#505050" transform="translate(323,215)"/>
<path d="M0 0 C0.556875 0.7115625 0.556875 0.7115625 1.125 1.4375 C3.62646962 3.52205802 5.81593418 3.64621491 9 4 C9 4.33 9 4.66 9 5 C3.62694301 5.96891192 3.62694301 5.96891192 1 6 C-1 4.5625 -1 4.5625 -2 3 C-1 1 -1 1 0 0 Z " fill="#838383" transform="translate(323,206)"/>
<path d="M0 0 C2.475 0.99 2.475 0.99 5 2 C4.01 2.495 4.01 2.495 3 3 C3 3.66 3 4.32 3 5 C3.66 5.33 4.32 5.66 5 6 C4.01 6.66 3.02 7.32 2 8 C0.74335022 5.09399739 0 3.20395416 0 0 Z " fill="#898989" transform="translate(186,266)"/>
<path d="M0 0 C2.6875 1.8125 2.6875 1.8125 5 4 C5 4.66 5 5.32 5 6 C1.20411134 5.45773019 -0.47211993 3.79872437 -3 1 C-2.01 0.67 -1.02 0.34 0 0 Z " fill="#828282" transform="translate(315,256)"/>
<path d="M0 0 C0.66 0 1.32 0 2 0 C2.99 1.98 3.98 3.96 5 6 C4.34 6.66 3.68 7.32 3 8 C1.02 4.535 1.02 4.535 -1 1 C-0.67 0.67 -0.34 0.34 0 0 Z " fill="#888888" transform="translate(175,247)"/>
<path d="M0 0 C2.5 1.125 2.5 1.125 5 3 C5.3125 6.1875 5.3125 6.1875 5 9 C4.938125 8.38125 4.87625 7.7625 4.8125 7.125 C4.171081 4.72238859 4.171081 4.72238859 1.4375 3.75 C0.633125 3.5025 -0.17125 3.255 -1 3 C-0.67 2.01 -0.34 1.02 0 0 Z " fill="#6D6D6D" transform="translate(315,152)"/>
<path d="M0 0 C1.32 0.66 2.64 1.32 4 2 C3.34 2 2.68 2 2 2 C1.67 3.65 1.34 5.3 1 7 C0.01 7 -0.98 7 -2 7 C-1.125 2.25 -1.125 2.25 0 0 Z " fill="#777777" transform="translate(188,137)"/>
<path d="M0 0 C0.66 1.32 1.32 2.64 2 4 C-1.22791555 6.1519437 -2.28400809 6.20086443 -6 6 C-5.67 5.01 -5.34 4.02 -5 3 C-3.67696283 2.6278958 -2.34262065 2.29369827 -1 2 C-0.67 1.34 -0.34 0.68 0 0 Z " fill="#969696" transform="translate(294,273)"/>
<path d="M0 0 C2.875 0.25 2.875 0.25 6 1 C7.375 3.0625 7.375 3.0625 8 5 C6.35 4.67 4.7 4.34 3 4 C3 3.34 3 2.68 3 2 C2.01 2 1.02 2 0 2 C0 1.34 0 0.68 0 0 Z " fill="#848484" transform="translate(215,272)"/>
<path d="M0 0 C1.65 0.33 3.3 0.66 5 1 C4.67 1.99 4.34 2.98 4 4 C2.35 4.33 0.7 4.66 -1 5 C-0.67 3.35 -0.34 1.7 0 0 Z " fill="#484848" transform="translate(179,253)"/>
<path d="M0 0 C1.64666203 0.1135629 3.29236082 0.24117381 4.9375 0.375 C5.85402344 0.44460937 6.77054687 0.51421875 7.71484375 0.5859375 C8.84599609 0.79089844 8.84599609 0.79089844 10 1 C10.33 1.66 10.66 2.32 11 3 C6.545 3.495 6.545 3.495 2 4 C1.34 2.68 0.68 1.36 0 0 Z " fill="#929292" transform="translate(253,126)"/>
<path d="M0 0 C1.67542976 0.28604898 3.34385343 0.61781233 5 1 C3.37660195 2.70884005 1.70680947 4.37446717 0 6 C-0.66 6 -1.32 6 -2 6 C-1.125 1.125 -1.125 1.125 0 0 Z " fill="#5E5E5E" transform="translate(213,273)"/>
<path d="M0 0 C0 0.66 0 1.32 0 2 C-1.98 2.66 -3.96 3.32 -6 4 C-6.33 3.01 -6.66 2.02 -7 1 C-3.375 -1.125 -3.375 -1.125 0 0 Z " fill="#8A8A8A" transform="translate(181,239)"/>
<path d="M0 0 C0 0.99 0 1.98 0 3 C-0.99 3.33 -1.98 3.66 -3 4 C-3.66 3.67 -4.32 3.34 -5 3 C-5.66 3.66 -6.32 4.32 -7 5 C-7 3.68 -7 2.36 -7 1 C-4.50935112 0.31292445 -2.62113708 0 0 0 Z " fill="#979797" transform="translate(234,117)"/>
<path d="M0 0 C0.99 0 1.98 0 3 0 C3.33 2.31 3.66 4.62 4 7 C3.01 7 2.02 7 1 7 C0.67 4.69 0.34 2.38 0 0 Z " fill="#8D8D8D" transform="translate(265,275)"/>
<path d="M0 0 C1.98 0 3.96 0 6 0 C6 1.32 6 2.64 6 4 C5.01 4 4.02 4 3 4 C3 3.34 3 2.68 3 2 C2.01 2 1.02 2 0 2 C0 1.34 0 0.68 0 0 Z " fill="#535353" transform="translate(200,277)"/>
<path d="M0 0 C0.99 0 1.98 0 3 0 C3.66 1.65 4.32 3.3 5 5 C4.34 5.66 3.68 6.32 3 7 C0 2.25 0 2.25 0 0 Z " fill="#808080" transform="translate(180,242)"/>
<path d="M0 0 C2.31 0.33 4.62 0.66 7 1 C7 1.99 7 2.98 7 4 C6.01 4 5.02 4 4 4 C4 3.34 4 2.68 4 2 C2.68 2 1.36 2 0 2 C0 1.34 0 0.68 0 0 Z " fill="#4D4D4D" transform="translate(313,239)"/>
<path d="M0 0 C0.33 0 0.66 0 1 0 C1.33 2.31 1.66 4.62 2 7 C1.01 7 0.02 7 -1 7 C-1.625 4.625 -1.625 4.625 -2 2 C-1.34 1.34 -0.68 0.68 0 0 Z " fill="#737373" transform="translate(320,218)"/>
<path d="M0 0 C0.66 0.33 1.32 0.66 2 1 C2.625 3.0625 2.625 3.0625 3 5 C2.34 4.67 1.68 4.34 1 4 C0.34 5.32 -0.32 6.64 -1 8 C-1.625 5.125 -1.625 5.125 -2 2 C-1.34 1.34 -0.68 0.68 0 0 Z " fill="#8D8D8D" transform="translate(320,175)"/>
<path d="M0 0 C0.1875 2.875 0.1875 2.875 0 6 C-0.99 6.66 -1.98 7.32 -3 8 C-3.66 7.34 -4.32 6.68 -5 6 C-2.84615385 0 -2.84615385 0 0 0 Z " fill="#919191" transform="translate(281,125)"/>
<path d="M0 0 C0 1.65 0 3.3 0 5 C-2.97 4.505 -2.97 4.505 -6 4 C-3.33333333 0 -3.33333333 0 0 0 Z " fill="#848484" transform="translate(228,285)"/>
<path d="M0 0 C1.65 1.32 3.3 2.64 5 4 C4.67 4.66 4.34 5.32 4 6 C2.02 5.01 0.04 4.02 -2 3 C-1.34 2.67 -0.68 2.34 0 2 C0 1.34 0 0.68 0 0 Z " fill="#666666" transform="translate(310,252)"/>
<path d="M0 0 C0.66 0.99 1.32 1.98 2 3 C2.66 2.67 3.32 2.34 4 2 C3.67 3.65 3.34 5.3 3 7 C1.68 6.34 0.36 5.68 -1 5 C-0.67 3.35 -0.34 1.7 0 0 Z " fill="#878787" transform="translate(163,181)"/>
<path d="M0 0 C1.875 0.3125 1.875 0.3125 4 1 C4.66 1.99 5.32 2.98 6 4 C4.68 4 3.36 4 2 4 C1.34 2.68 0.68 1.36 0 0 Z " fill="#6C6C6C" transform="translate(186,150)"/>
<path d="M0 0 C-1.32 0.99 -2.64 1.98 -4 3 C-5.32 2.34 -6.64 1.68 -8 1 C-4.93251126 -0.86240388 -3.40254489 -1.2151946 0 0 Z " fill="#818181" transform="translate(316,149)"/>
<path d="M0 0 C1.32 0.33 2.64 0.66 4 1 C3.67 1.66 3.34 2.32 3 3 C2.01 3 1.02 3 0 3 C0 2.01 0 1.02 0 0 Z " fill="#7C7C7C" transform="translate(251,278)"/>
<path d="M0 0 C0.99 0.33 1.98 0.66 3 1 C2.67 1.99 2.34 2.98 2 4 C1.34 4 0.68 4 0 4 C0 2.68 0 1.36 0 0 Z " fill="#7C7C7C" transform="translate(243,126)"/>
</svg>
